<svg xmlns="http://www.w3.org/2000/svg" viewBox="0 0 296.5 81" enable-background="new 0 0 296.5 81"><style>.style0{fill: #07545B;}.style1{fill-rule: evenodd;clip-rule: evenodd;fill: #06565F;}.style2{fill-rule: evenodd;clip-rule: evenodd;fill: #2A7787;}.style3{fill-rule: evenodd;clip-rule: evenodd;fill: #1879AC;}.style4{fill: #F9A41F;}</style><path class="style0" d="M111.4 67.5h-5.5V37.6H113.6l8 22.7 7.9-22.7H137.2v29.9h-5.5V44.8l-7.9 22.7h-4.5l-7.9-22.6zM152.7 68.3c-3.2 0-6-1.2-8.3-3.5-2.3-2.3-3.4-5.1-3.4-8.5 0-3.3 1.1-6.1 3.4-8.5 2.3-2.3 5-3.5 8.3-3.5 3.3 0 6 1.2 8.3 3.5 2.3 2.3 3.4 5.2 3.4 8.5 0 .8-.1 1.6-.2 2.4h-17.5c.3 1 .8 1.9 1.5 2.6 1.2 1.3 2.8 2 4.6 2 1.1 0 2.2-.3 3.1-.8.9-.5 1.6-1.2 2.1-2.1h5.7c-.7 2.4-2.1 4.3-4.1 5.7-2 1.5-4.3 2.2-6.9 2.2m6.1-13.9c-.3-1.2-.8-2.2-1.6-3.1-1.2-1.4-2.7-2-4.5-2-1.8 0-3.3.7-4.5 2-.8.9-1.3 1.9-1.6 3.1h12.2zM169.1 67.5V49.8h-2.6v-4.7h2.6v-7.5h5.3v7.5h3.3v4.7h-3.3v17.7zM190.7 68.3c-3.2 0-6-1.2-8.3-3.5-2.3-2.3-3.4-5.1-3.4-8.5 0-3.3 1.1-6.1 3.4-8.5 2.3-2.3 5-3.5 8.3-3.5 3.3 0 6 1.2 8.3 3.5 2.3 2.3 3.4 5.2 3.4 8.5 0 .8-.1 1.6-.2 2.4h-17.5c.3 1 .8 1.9 1.5 2.6 1.2 1.3 2.8 2 4.6 2 1.1 0 2.2-.3 3.1-.8.9-.5 1.6-1.2 2.1-2.1h5.7c-.7 2.4-2.1 4.3-4.1 5.7-2 1.5-4.3 2.2-6.9 2.2m6.1-13.9c-.3-1.2-.8-2.2-1.6-3.1-1.2-1.4-2.7-2-4.5-2-1.8 0-3.3.7-4.5 2-.8.9-1.3 1.9-1.6 3.1h12.2zM208.1 64.8c-2.3-2.3-3.5-5.1-3.5-8.5 0-3.3 1.2-6.1 3.5-8.5 2.3-2.3 5.1-3.5 8.4-3.5 3.3 0 6.1 1.2 8.5 3.5 2.3 2.3 3.5 5.2 3.5 8.5s-1.2 6.1-3.5 8.5c-2.3 2.3-5.1 3.5-8.5 3.5-3.2 0-6.1-1.2-8.4-3.5m13.1-3.5c1.3-1.3 1.9-3 1.9-5s-.6-3.7-1.9-5c-1.2-1.4-2.8-2-4.7-2-1.8 0-3.4.7-4.6 2-1.3 1.4-1.9 3-1.9 5s.6 3.7 1.9 5c1.3 1.3 2.8 2 4.6 2 1.9 0 3.5-.6 4.7-2"/><path class="style0" d="M232.4 67.5V37.6h5.5v24.8h9.2v5.1zM254.7 57.1c0 2.1.4 3.6 1.1 4.7.8 1.1 1.9 1.6 3.4 1.6 1.6 0 2.7-.5 3.5-1.6.8-1.1 1.2-2.7 1.2-4.9V45.1h5.4v22.4h-5v-2c-1.7 1.8-3.8 2.7-6.3 2.7-2.7 0-4.8-.9-6.3-2.7-1.6-1.8-2.4-4.2-2.4-7.3V45.1h5.4v12zM279.7 56l-7.2-10.9H278.8l4 7 4.1-7h6.2L286 55.9l8 11.6H287.7l-4.8-7.8-4.9 7.8H271.7z"/><path d="M76 79.5c-20.8 3.3-40.2-10.2-43.4-30.2-3.2-20 11.1-38.9 31.9-42.2-20 8.9-28.8 31.6-19.8 50.6C50.4 69.8 62.2 78.1 76 79.5z" class="style1"/><path d="M48 46.2c-3.6-16.1 6.2-32 21.7-35.5 15.6-3.5 31.1 6.8 34.7 23-7.9-15.2-26.2-21-40.8-13.1-9.2 5-15.2 14.7-15.6 25.6z" class="style2"/><path d="M80.4 22.7c11.7 0 21.2 10.1 21.2 22.6 0 12.5-9.5 22.6-21.2 22.6C92.1 64.4 98.9 51.4 95.7 39c-2.1-7.9-7.9-14.1-15.3-16.3z" class="style3"/><path d="M37.1 15.4c-.1 0-.3-.1-.4-.2-.7-.5-.9-1.5-.4-2.2l4.3-6.5c.5-.7 1.5-.9 2.2-.4.7.5.9 1.5.4 2.2l-4.3 6.5c-.4.6-1.1.8-1.8.6zM26.9 12.6c-.1.1-.3.1-.5.1-.9.1-1.6-.5-1.7-1.4l-.9-7.7c-.1-.9.5-1.6 1.4-1.7.9-.1 1.6.5 1.7 1.4l.9 7.7c.1.7-.3 1.4-.9 1.6zM17.5 16.9c-.1.1-.2.3-.3.4-.6.6-1.6.6-2.2 0l-5.6-5.4c-.6-.6-.6-1.6 0-2.2.6-.6 1.6-.6 2.2 0l5.6 5.4c.5.5.6 1.2.3 1.8zM12.9 26.6c0 .2.1.3 0 .5-.1.9-.8 1.5-1.7 1.5l-7.8-.5C2.7 28 2 27.3 2 26.4c.1-.9.8-1.5 1.7-1.5l7.8.5c.7 0 1.3.5 1.4 1.2zM15.5 36.6l.3.3c.5.7.4 1.7-.3 2.2l-6.3 4.6c-.7.5-1.7.4-2.2-.3-.5-.7-.4-1.7.3-2.2l6.3-4.6c.6-.4 1.4-.4 1.9 0zM24.1 42.7h.5c.8.2 1.4 1.1 1.2 1.9L24 52.2c-.2.8-1.1 1.4-1.9 1.2-.8-.2-1.4-1.1-1.2-1.9l1.8-7.6c.2-.7.8-1.1 1.4-1.2zM37.1 15.4c-.1 0-.3-.1-.4-.2-.7-.5-.9-1.5-.4-2.2l4.3-6.5c.5-.7 1.5-.9 2.2-.4.7.5.9 1.5.4 2.2l-4.3 6.5c-.4.6-1.1.8-1.8.6zM30.7 36.9c-1.6.5-3.4.5-5.2 0-4.9-1.5-7.8-6.7-6.3-11.6 1.5-4.9 6.7-7.8 11.6-6.3 2.3.7 4.2 2.2 5.4 4.2.6-.9 1.3-1.8 2-2.7-1.6-2.2-3.9-3.8-6.5-4.5-6.6-1.9-13.6 1.9-15.5 8.5-2 6.5 1.8 13.5 8.5 15.4 1.9.6 3.8.6 5.7.3 0-1.1.1-2.2.3-3.3z" class="style4"/></svg>